<svg xmlns="http://www.w3.org/2000/svg" width="1600" height="900" viewBox="0 0 1600 900" fill="none">
  <defs>
    <linearGradient id="edge" x1="527" y1="365" x2="1080" y2="547" gradientUnits="userSpaceOnUse">
      <stop stop-color="#A4ACF2"/>
      <stop offset="0.5" stop-color="#62699E"/>
      <stop offset="1" stop-color="#8592E4"/>
    </linearGradient>
    <linearGradient id="label" x1="800" y1="402" x2="800" y2="496" gradientUnits="userSpaceOnUse">
      <stop stop-color="white"/>
      <stop offset="0.58" stop-color="white"/>
      <stop offset="1" stop-color="#9699A8"/>
    </linearGradient>
    <radialGradient id="galaxy" cx="0" cy="0" r="1" gradientTransform="translate(800 574) rotate(-90) scale(196 432)" gradientUnits="userSpaceOnUse">
      <stop stop-color="#536EFF" stop-opacity="0.72"/>
      <stop offset="0.38" stop-color="#3430B2" stop-opacity="0.35"/>
      <stop offset="1" stop-color="#0A0609" stop-opacity="0"/>
    </radialGradient>
    <filter id="outerGlow" x="447" y="298" width="706" height="306" filterUnits="userSpaceOnUse" color-interpolation-filters="sRGB">
      <feGaussianBlur stdDeviation="28"/>
    </filter>
    <filter id="starGlow" x="-100%" y="-100%" width="300%" height="300%">
      <feGaussianBlur stdDeviation="3" result="blur"/>
      <feMerge><feMergeNode in="blur"/><feMergeNode in="SourceGraphic"/></feMerge>
    </filter>
    <clipPath id="clip"><rect x="527" y="365" width="546" height="170" rx="85"/></clipPath>
  </defs>
  <rect width="1600" height="900" fill="#080609"/>
  <rect x="503" y="341" width="594" height="218" rx="109" fill="#4B52E8" fill-opacity="0.26" filter="url(#outerGlow)"/>
  <rect x="527" y="365" width="546" height="170" rx="85" fill="url(#edge)"/>
  <rect x="530" y="368" width="540" height="164" rx="82" fill="#0A0609"/>
  <g clip-path="url(#clip)">
    <rect x="530" y="368" width="540" height="164" rx="82" fill="url(#galaxy)"/>
    <ellipse cx="800" cy="586" rx="198" ry="96" stroke="#8EA2FF" stroke-opacity="0.45"/>
    <g fill="#EEF2FF" filter="url(#starGlow)">
      <circle cx="575" cy="463" r="2"/><circle cx="610" cy="425" r="1.4"/><circle cx="645" cy="488" r="2.2"/>
      <circle cx="689" cy="451" r="1.5"/><circle cx="716" cy="508" r="1.3"/><circle cx="754" cy="420" r="1.7"/>
      <circle cx="793" cy="494" r="2.4"/><circle cx="837" cy="438" r="1.5"/><circle cx="871" cy="510" r="1.8"/>
      <circle cx="915" cy="463" r="2.2"/><circle cx="956" cy="418" r="1.3"/><circle cx="1007" cy="483" r="2"/>
    </g>
    <path d="M550 495L739 458" stroke="url(#edge)" stroke-opacity="0.48"/>
    <path d="M881 496L1054 457" stroke="url(#edge)" stroke-opacity="0.42"/>
  </g>
  <rect x="530" y="368" width="540" height="164" rx="82" stroke="#5962C9" stroke-opacity="0.48" stroke-width="8"/>
  <text x="800" y="478" fill="url(#label)" font-family="Inter, Arial, sans-serif" font-size="72" font-weight="500" text-anchor="middle" letter-spacing="-1">Generate</text>
</svg>
