<svg xmlns="http://www.w3.org/2000/svg" viewBox="0 0 480 320" preserveAspectRatio="none">
  <defs>
    <linearGradient id="sky" x2="0" y2="1">
      <stop stop-color="#4a95d2"/>
      <stop offset=".55" stop-color="#dce5e6"/>
      <stop offset="1" stop-color="#1c57c5"/>
    </linearGradient>
    <linearGradient id="glass" x2=".2" y2="1">
      <stop stop-color="#b8e2d5"/>
      <stop offset=".5" stop-color="#76acd3"/>
      <stop offset="1" stop-color="#103e9f"/>
    </linearGradient>
    <radialGradient id="warm"><stop stop-color="#f4e5a7"/><stop offset="1" stop-color="#f4e5a7" stop-opacity="0"/></radialGradient>
    <clipPath id="clip"><path d="M 80 320 C 170 250 238 160 324 116 C 390 80 440 73 480 70 L 480 320 Z"/></clipPath>
    <filter id="blur"><feGaussianBlur stdDeviation="13"/></filter>
  </defs>
  <rect width="480" height="320" fill="url(#sky)"/>
  <ellipse cx="54" cy="247" rx="196" ry="122" fill="url(#warm)"/>
  <path d="M 80 320 C 170 250 238 160 324 116 C 390 80 440 73 480 70 L 480 320 Z" fill="url(#glass)"/>
  <g clip-path="url(#clip)" filter="url(#blur)" fill="none">
    <path d="M 110 370 C 248 192 380 111 540 99" stroke="#dbf6d8" stroke-width="36" opacity=".55"/>
    <path d="M 100 388 C 230 270 390 165 535 161" stroke="#9ee2df" stroke-width="55" opacity=".7"/>
    <path d="M 100 409 C 250 330 392 227 538 217" stroke="#0647c4" stroke-width="75" opacity=".8"/>
  </g>
  <path d="M 80 320 C 170 250 238 160 324 116 C 390 80 440 73 480 70" fill="none" stroke="#eefff8" stroke-opacity=".7" stroke-width="1.3"/>
</svg>
