<svg xmlns="http://www.w3.org/2000/svg" width="1440" height="810" viewBox="0 0 1440 810" role="img" aria-label="Hero Neurix preview">
  <defs>
    <radialGradient id="glow" cx="50%" cy="62%" r="55%">
      <stop offset="0%" stop-color="#ec4899" stop-opacity="0.48"/>
      <stop offset="42%" stop-color="#2563eb" stop-opacity="0.28"/>
      <stop offset="100%" stop-color="#050505" stop-opacity="0"/>
    </radialGradient>
    <linearGradient id="panel" x1="0" x2="1" y1="0" y2="1">
      <stop offset="0%" stop-color="#27272a" stop-opacity="0.98"/>
      <stop offset="100%" stop-color="#09090b" stop-opacity="0.98"/>
    </linearGradient>
    <filter id="blur">
      <feGaussianBlur stdDeviation="34"/>
    </filter>
  </defs>
  <rect width="1440" height="810" fill="#050505"/>
  <rect width="1440" height="810" fill="url(#glow)"/>
  <g opacity="0.55" filter="url(#blur)">
    <path d="M360 620C520 445 680 380 900 430C1050 465 1165 420 1280 320" fill="none" stroke="#3b82f6" stroke-width="80"/>
    <path d="M210 690C435 515 580 465 760 505C920 540 1060 505 1230 395" fill="none" stroke="#f472b6" stroke-width="70"/>
  </g>
  <g opacity="0.28">
    <rect x="250" y="470" width="42" height="260" fill="#fdf2f8"/>
    <rect x="330" y="435" width="42" height="295" fill="#ec4899"/>
    <rect x="410" y="400" width="42" height="330" fill="#3b82f6"/>
    <rect x="490" y="372" width="42" height="358" fill="#2563eb"/>
    <rect x="570" y="360" width="42" height="370" fill="#172554"/>
    <rect x="650" y="372" width="42" height="358" fill="#fdf2f8"/>
    <rect x="730" y="400" width="42" height="330" fill="#ec4899"/>
    <rect x="810" y="435" width="42" height="295" fill="#3b82f6"/>
    <rect x="890" y="470" width="42" height="260" fill="#2563eb"/>
    <rect x="970" y="500" width="42" height="230" fill="#172554"/>
  </g>
  <g fill="#fff" font-family="Inter, Arial, sans-serif">
    <text x="112" y="88" font-size="28" font-weight="700" letter-spacing="-1">NEURIX</text>
    <text x="720" y="300" text-anchor="middle" font-size="18" font-weight="700" fill="#a1a1aa" letter-spacing="3">CUSTOMIZABLE AI LOGIC</text>
    <text x="720" y="386" text-anchor="middle" font-size="78" font-weight="650" letter-spacing="-4">AI That Thinks With You</text>
    <text x="720" y="474" text-anchor="middle" font-size="78" font-weight="650" letter-spacing="-4">Not For You</text>
    <text x="720" y="538" text-anchor="middle" font-size="24" fill="#a1a1aa">Adaptive AI workflows built for speed, clarity, and scale.</text>
  </g>
  <rect x="430" y="586" width="580" height="118" rx="24" fill="url(#panel)" stroke="#27272a"/>
  <text x="470" y="640" fill="#71717a" font-family="Inter, Arial, sans-serif" font-size="22">Ask Neurix anything...</text>
  <rect x="470" y="662" width="86" height="30" rx="9" fill="#27272a" stroke="#3f3f46"/>
  <rect x="575" y="662" width="118" height="30" rx="9" fill="#27272a" stroke="#3f3f46"/>
  <circle cx="966" cy="677" r="18" fill="#fff"/>
</svg>
